<svg width="179" height="19" viewBox="0 0 179 19" fill="none" xmlns="http://www.w3.org/2000/svg">
<path d="M7.176 2.448C5.912 2.448 5.28 3.136 5.28 4.512V5.28H8.808V7.68H5.376V18H2.376V7.68H0.264V5.28H2.376V4.464C2.376 3.088 2.776 2.008 3.576 1.224C4.376 0.423999 5.504 0.0239997 6.96 0.0239997C8.112 0.0239997 9.016 0.256 9.672 0.719999L8.832 2.976C8.32 2.624 7.768 2.448 7.176 2.448ZM15.6053 7.056C16.4693 5.712 17.9893 5.04 20.1653 5.04V7.896C19.9093 7.848 19.6773 7.824 19.4693 7.824C18.3013 7.824 17.3893 8.168 16.7333 8.856C16.0773 9.528 15.7493 10.504 15.7493 11.784V18H12.7493V5.184H15.6053V7.056ZM34.641 11.664C34.641 11.872 34.625 12.168 34.593 12.552H24.537C24.713 13.496 25.169 14.248 25.905 14.808C26.657 15.352 27.585 15.624 28.689 15.624C30.097 15.624 31.257 15.16 32.169 14.232L33.777 16.08C33.201 16.768 32.473 17.288 31.593 17.64C30.713 17.992 29.721 18.168 28.617 18.168C27.209 18.168 25.969 17.888 24.897 17.328C23.825 16.768 22.993 15.992 22.401 15C21.825 13.992 21.537 12.856 21.537 11.592C21.537 10.344 21.817 9.224 22.377 8.232C22.953 7.224 23.745 6.44 24.753 5.88C25.761 5.32 26.897 5.04 28.161 5.04C29.409 5.04 30.521 5.32 31.497 5.88C32.489 6.424 33.257 7.2 33.801 8.208C34.361 9.2 34.641 10.352 34.641 11.664ZM28.161 7.44C27.201 7.44 26.385 7.728 25.713 8.304C25.057 8.864 24.657 9.616 24.513 10.56H31.785C31.657 9.632 31.265 8.88 30.609 8.304C29.953 7.728 29.137 7.44 28.161 7.44ZM41.4827 18.168C40.4427 18.168 39.4267 18.032 38.4347 17.76C37.4427 17.488 36.6507 17.144 36.0587 16.728L37.2107 14.448C37.7867 14.832 38.4747 15.144 39.2747 15.384C40.0907 15.608 40.8907 15.72 41.6747 15.72C43.4667 15.72 44.3627 15.248 44.3627 14.304C44.3627 13.856 44.1307 13.544 43.6667 13.368C43.2187 13.192 42.4907 13.024 41.4827 12.864C40.4267 12.704 39.5627 12.52 38.8907 12.312C38.2347 12.104 37.6587 11.744 37.1627 11.232C36.6827 10.704 36.4427 9.976 36.4427 9.048C36.4427 7.832 36.9467 6.864 37.9547 6.144C38.9787 5.408 40.3547 5.04 42.0827 5.04C42.9627 5.04 43.8427 5.144 44.7227 5.352C45.6027 5.544 46.3227 5.808 46.8827 6.144L45.7307 8.424C44.6427 7.784 43.4187 7.464 42.0587 7.464C41.1787 7.464 40.5067 7.6 40.0427 7.872C39.5947 8.128 39.3707 8.472 39.3707 8.904C39.3707 9.384 39.6107 9.728 40.0907 9.936C40.5867 10.128 41.3467 10.312 42.3707 10.488C43.3947 10.648 44.2347 10.832 44.8907 11.04C45.5467 11.248 46.1067 11.6 46.5707 12.096C47.0507 12.592 47.2907 13.296 47.2907 14.208C47.2907 15.408 46.7707 16.368 45.7307 17.088C44.6907 17.808 43.2747 18.168 41.4827 18.168ZM57.1463 5.04C58.7623 5.04 60.0583 5.512 61.0343 6.456C62.0103 7.4 62.4983 8.8 62.4983 10.656V18H59.4983V11.04C59.4983 9.92 59.2343 9.08 58.7063 8.52C58.1783 7.944 57.4263 7.656 56.4503 7.656C55.3463 7.656 54.4743 7.992 53.8343 8.664C53.1943 9.32 52.8743 10.272 52.8743 11.52V18H49.8743V0.191999H52.8743V6.672C53.3703 6.144 53.9783 5.744 54.6983 5.472C55.4343 5.184 56.2503 5.04 57.1463 5.04ZM82.4799 5.04C84.0959 5.04 85.3759 5.512 86.3199 6.456C87.2639 7.384 87.7359 8.784 87.7359 10.656V18H84.7359V11.04C84.7359 9.92 84.4879 9.08 83.9919 8.52C83.4959 7.944 82.7839 7.656 81.8559 7.656C80.8479 7.656 80.0399 7.992 79.4319 8.664C78.8239 9.32 78.5199 10.264 78.5199 11.496V18H75.5199V11.04C75.5199 9.92 75.2719 9.08 74.7759 8.52C74.2799 7.944 73.5679 7.656 72.6399 7.656C71.6159 7.656 70.7999 7.984 70.1919 8.64C69.5999 9.296 69.3039 10.248 69.3039 11.496V18H66.3039V5.184H69.1599V6.816C69.6399 6.24 70.2399 5.8 70.9599 5.496C71.6799 5.192 72.4799 5.04 73.3599 5.04C74.3199 5.04 75.1679 5.224 75.9039 5.592C76.6559 5.944 77.2479 6.472 77.6799 7.176C78.2079 6.504 78.8879 5.984 79.7199 5.616C80.5519 5.232 81.4719 5.04 82.4799 5.04ZM96.4656 5.04C98.3536 5.04 99.7936 5.496 100.786 6.408C101.794 7.304 102.298 8.664 102.298 10.488V18H99.4656V16.44C99.0976 17 98.5696 17.432 97.8816 17.736C97.2096 18.024 96.3936 18.168 95.4336 18.168C94.4736 18.168 93.6336 18.008 92.9136 17.688C92.1936 17.352 91.6336 16.896 91.2336 16.32C90.8496 15.728 90.6576 15.064 90.6576 14.328C90.6576 13.176 91.0816 12.256 91.9296 11.568C92.7936 10.864 94.1456 10.512 95.9856 10.512H99.2976V10.32C99.2976 9.424 99.0256 8.736 98.4816 8.256C97.9536 7.776 97.1616 7.536 96.1056 7.536C95.3856 7.536 94.6736 7.648 93.9696 7.872C93.2816 8.096 92.6976 8.408 92.2176 8.808L91.0416 6.624C91.7136 6.112 92.5216 5.72 93.4656 5.448C94.4096 5.176 95.4096 5.04 96.4656 5.04ZM96.0576 15.984C96.8096 15.984 97.4736 15.816 98.0496 15.48C98.6416 15.128 99.0576 14.632 99.2976 13.992V12.504H96.2016C94.4736 12.504 93.6096 13.072 93.6096 14.208C93.6096 14.752 93.8256 15.184 94.2576 15.504C94.6896 15.824 95.2896 15.984 96.0576 15.984ZM113.42 5.04C115.036 5.04 116.332 5.512 117.308 6.456C118.284 7.4 118.772 8.8 118.772 10.656V18H115.772V11.04C115.772 9.92 115.508 9.08 114.98 8.52C114.452 7.944 113.7 7.656 112.724 7.656C111.62 7.656 110.748 7.992 110.108 8.664C109.468 9.32 109.148 10.272 109.148 11.52V18H106.148V5.184H109.004V6.84C109.5 6.248 110.124 5.8 110.876 5.496C111.628 5.192 112.476 5.04 113.42 5.04ZM126.321 18.096C125.313 18.096 124.353 17.944 123.441 17.64C122.529 17.336 121.817 16.952 121.305 16.488L121.857 15.528C122.369 15.96 123.025 16.32 123.825 16.608C124.641 16.896 125.489 17.04 126.369 17.04C127.633 17.04 128.561 16.832 129.153 16.416C129.761 16 130.065 15.424 130.065 14.688C130.065 14.16 129.897 13.744 129.561 13.44C129.241 13.136 128.841 12.912 128.361 12.768C127.881 12.624 127.217 12.472 126.369 12.312C125.377 12.136 124.577 11.944 123.969 11.736C123.361 11.528 122.841 11.192 122.409 10.728C121.977 10.264 121.761 9.624 121.761 8.808C121.761 7.816 122.169 7 122.985 6.36C123.817 5.704 124.993 5.376 126.513 5.376C127.313 5.376 128.105 5.488 128.889 5.712C129.673 5.936 130.313 6.232 130.809 6.6L130.257 7.56C129.745 7.192 129.161 6.912 128.505 6.72C127.849 6.528 127.177 6.432 126.489 6.432C125.321 6.432 124.441 6.648 123.849 7.08C123.257 7.512 122.961 8.08 122.961 8.784C122.961 9.344 123.129 9.784 123.465 10.104C123.801 10.408 124.209 10.64 124.689 10.8C125.185 10.944 125.873 11.104 126.753 11.28C127.729 11.456 128.513 11.648 129.105 11.856C129.713 12.048 130.225 12.368 130.641 12.816C131.057 13.264 131.265 13.88 131.265 14.664C131.265 15.704 130.833 16.536 129.969 17.16C129.105 17.784 127.889 18.096 126.321 18.096ZM140.83 17.208C140.526 17.496 140.142 17.72 139.678 17.88C139.23 18.024 138.758 18.096 138.262 18.096C137.174 18.096 136.334 17.8 135.742 17.208C135.15 16.6 134.854 15.76 134.854 14.688V6.504H132.55V5.472H134.854V2.736H136.054V5.472H140.038V6.504H136.054V14.568C136.054 15.384 136.246 16.008 136.63 16.44C137.03 16.856 137.614 17.064 138.382 17.064C139.166 17.064 139.814 16.832 140.326 16.368L140.83 17.208ZM148.628 18.096C147.444 18.096 146.372 17.824 145.412 17.28C144.468 16.736 143.724 15.984 143.18 15.024C142.636 14.048 142.364 12.952 142.364 11.736C142.364 10.52 142.636 9.432 143.18 8.472C143.724 7.496 144.468 6.736 145.412 6.192C146.372 5.648 147.444 5.376 148.628 5.376C149.812 5.376 150.876 5.648 151.82 6.192C152.78 6.736 153.532 7.496 154.076 8.472C154.62 9.432 154.892 10.52 154.892 11.736C154.892 12.952 154.62 14.048 154.076 15.024C153.532 15.984 152.78 16.736 151.82 17.28C150.876 17.824 149.812 18.096 148.628 18.096ZM148.628 17.016C149.588 17.016 150.444 16.792 151.196 16.344C151.964 15.896 152.564 15.272 152.996 14.472C153.444 13.672 153.668 12.76 153.668 11.736C153.668 10.712 153.444 9.8 152.996 9C152.564 8.2 151.964 7.576 151.196 7.128C150.444 6.68 149.588 6.456 148.628 6.456C147.668 6.456 146.804 6.68 146.036 7.128C145.284 7.576 144.684 8.2 144.236 9C143.804 9.8 143.588 10.712 143.588 11.736C143.588 12.76 143.804 13.672 144.236 14.472C144.684 15.272 145.284 15.896 146.036 16.344C146.804 16.792 147.668 17.016 148.628 17.016ZM159.766 8.208C160.15 7.296 160.75 6.6 161.566 6.12C162.382 5.624 163.374 5.376 164.542 5.376V6.552L164.254 6.528C162.862 6.528 161.774 6.968 160.99 7.848C160.206 8.712 159.814 9.92 159.814 11.472V18H158.614V5.472H159.766V8.208ZM178.316 12.024H167.54C167.572 13 167.82 13.872 168.284 14.64C168.748 15.392 169.372 15.976 170.156 16.392C170.956 16.808 171.852 17.016 172.844 17.016C173.66 17.016 174.412 16.872 175.1 16.584C175.804 16.28 176.388 15.84 176.852 15.264L177.548 16.056C177.004 16.712 176.316 17.216 175.484 17.568C174.668 17.92 173.78 18.096 172.82 18.096C171.572 18.096 170.46 17.824 169.484 17.28C168.508 16.736 167.74 15.984 167.18 15.024C166.636 14.064 166.364 12.968 166.364 11.736C166.364 10.52 166.62 9.432 167.132 8.472C167.66 7.496 168.38 6.736 169.292 6.192C170.204 5.648 171.228 5.376 172.364 5.376C173.5 5.376 174.516 5.648 175.412 6.192C176.324 6.72 177.036 7.464 177.548 8.424C178.076 9.384 178.34 10.472 178.34 11.688L178.316 12.024ZM172.364 6.432C171.484 6.432 170.692 6.632 169.988 7.032C169.284 7.416 168.716 7.968 168.284 8.688C167.868 9.392 167.628 10.192 167.564 11.088H177.164C177.116 10.192 176.876 9.392 176.444 8.688C176.012 7.984 175.444 7.432 174.74 7.032C174.036 6.632 173.244 6.432 172.364 6.432Z" fill="#333333"/>
</svg>
